<svg xmlns="http://www.w3.org/2000/svg" x="0px" y="0px"
     width="40" height="40"
     viewBox="0 0 252 252"
     style=";fill:#e67e22;"
     class="icon icons8-map-pin"><g fill="none" fill-rule="nonzero" stroke="none" stroke-width="1" stroke-linecap="butt" stroke-linejoin="miter" stroke-miterlimit="10" stroke-dasharray="" stroke-dashoffset="0" font-family="none" font-weight="none" font-size="none" text-anchor="none" style="mix-blend-mode: normal"><path d="M0,252v-252h252v252z" fill="none"></path><g id="Layer_1"><g><path d="M116.55,226.0566v-197.7066h18.9v197.7066l-9.45,18.9z" fill="#ffffff"></path><path d="M132.3,31.5v193.8132l-6.3,12.6l-6.3,-12.6v-193.8132h12.6M138.6,25.2h-25.2v201.6l12.6,25.2l12.6,-25.2v-201.6z" fill="#9b59b6"></path></g><g><path d="M126,85.05c-22.5792,0 -40.95,-18.3708 -40.95,-40.95c0,-22.5792 18.3708,-40.95 40.95,-40.95c22.5792,0 40.95,18.3708 40.95,40.95c0,22.5792 -18.3708,40.95 -40.95,40.95z" fill="#9b59b6"></path><path d="M126,6.3c20.8404,0 37.8,16.9596 37.8,37.8c0,20.8404 -16.9596,37.8 -37.8,37.8c-20.8404,0 -37.8,-16.9596 -37.8,-37.8c0,-20.8404 16.9596,-37.8 37.8,-37.8M126,0c-24.3558,0 -44.1,19.7442 -44.1,44.1c0,24.3558 19.7442,44.1 44.1,44.1c24.3558,0 44.1,-19.7442 44.1,-44.1c0,-24.3558 -19.7442,-44.1 -44.1,-44.1z" fill="#8e44ad"></path></g></g></g></svg>