<svg xmlns="http://www.w3.org/2000/svg" x="0px" y="0px"
     width="50" height="50"
     viewBox="0 0 252 252"
     style="fill:#ffffff;"><g fill="none" fill-rule="nonzero" stroke="none" stroke-width="1" stroke-linecap="butt" stroke-linejoin="miter" stroke-miterlimit="10" stroke-dasharray="" stroke-dashoffset="0" font-family="none" font-weight="none" font-size="none" text-anchor="none" style="mix-blend-mode: normal"><path d="M0,252v-252h252v252z" fill="none"></path><g><g id="surface1"><path d="M248.0625,118.125c0,53.83301 -54.77124,97.60694 -122.0625,97.60694c-8.45947,0 -16.90357,-0.70752 -25.23999,-2.12256c-4.87573,7.875 -18.42627,24.13257 -47.25,30.56177h-0.83057c-1.33813,-0.0769 -2.55322,-0.83057 -3.2146,-1.99951c-0.66138,-1.18433 -0.67676,-2.61474 -0.04614,-3.79907c6.65992,-11.56641 10.58203,-24.51709 11.45874,-37.83691c-35.7605,-17.99561 -56.93994,-48.71118 -56.93994,-82.41065c0,-53.94067 54.77124,-97.72998 122.0625,-97.72998c67.29126,0 122.0625,43.7893 122.0625,97.72998z" fill="#ffffff"></path><path d="M6.45996,137.8125c6.56763,25.7168 25.82446,48.18823 54.34058,62.56934c-0.89209,13.31983 -4.79883,26.27051 -11.45874,37.83691c-0.69214,1.19971 -0.70752,2.66089 -0.04614,3.87598c0.67676,1.21509 1.92261,1.98413 3.30689,2.03027h0.83057c28.85449,-6.41382 42.40503,-22.87134 47.25,-30.56177c8.33642,1.41504 16.78051,2.12256 25.23999,2.13794c58.63184,0 107.72754,-33.23804 119.41699,-77.3811c1.23047,-4.72192 0.18457,-9.73608 -2.79932,-13.59668c-2.98388,-3.84521 -7.59814,-6.09082 -12.47387,-6.09082h-208.25684c-4.76807,0.01538 -9.29004,2.18408 -12.27393,5.90625c-2.98388,3.73755 -4.12207,8.61328 -3.07617,13.27368z" fill="#ffffff"></path><path d="M220.5,118.47876c0,-41.31299 -42.31275,-74.8125 -94.5,-74.8125c-52.18725,0 -94.5,33.49951 -94.5,74.8125c0,41.31299 42.31275,74.8125 94.5,74.8125c52.18725,0 94.5,-33.49951 94.5,-74.8125z" fill="#ffffff"></path><path d="M126,16.42676c-69.49072,0 -126,45.18897 -126,100.76001c0,34.91455 21.88696,66.6145 58.70874,85.19458c-0.90747,13.75049 -4.93725,27.11645 -11.8125,39.06738c-0.7229,1.21508 -0.73828,2.72241 -0.03076,3.95288c0.69214,1.23047 1.99951,1.98413 3.41455,1.98413h0.86133c29.80811,-6.61377 43.78931,-23.625 48.83423,-31.5c8.61328,1.4458 17.33423,2.1687 26.07056,2.1687c69.49072,0 126,-45.20434 126,-100.76001c0,-55.55566 -56.55542,-100.86768 -126.04614,-100.86768zM126,210.02564c-9.16699,0 -18.3186,-0.84595 -27.33179,-2.52246c-1.66113,-0.30762 -3.35303,0.47681 -4.16821,1.96875c-2.64551,4.84497 -12.59692,19.93359 -36.54492,27.76245c5.22949,-11.70483 8.21338,-24.28638 8.78247,-37.09863c0.0769,-1.58423 -0.81518,-3.04541 -2.24561,-3.73755c-35.4375,-17.01123 -56.61694,-46.77319 -56.61694,-79.21142c0,-51.1875 53.00244,-92.88501 118.125,-92.88501c65.12256,0 118.125,41.65137 118.125,92.88501c0,51.21826 -53.00244,92.83887 -118.125,92.83887z" fill="#333333"></path><path d="M124.86182,179.90991c-2.1687,0.18457 -3.76831,2.0918 -3.58374,4.24512l0.66138,7.875c0.18457,2.03027 1.89185,3.59912 3.9375,3.58374h0.35376c1.07666,-0.06152 2.07642,-0.55371 2.76855,-1.35352c0.69214,-0.81519 1.03052,-1.87647 0.93823,-2.93775l-0.67676,-7.875c-0.09228,-1.06128 -0.61523,-2.03027 -1.4458,-2.70703c-0.83057,-0.66138 -1.89185,-0.969 -2.95312,-0.83057z" fill="#333333"></path><path d="M48.03442,145.6875l-6.45996,4.52197c-1.78418,1.26123 -2.21484,3.72217 -0.95362,5.50635c1.24585,1.7688 3.70679,2.21484 5.49097,0.95362l6.45996,-4.52197c1.78418,-1.24585 2.21484,-3.70679 0.95361,-5.49097c-1.24585,-1.78418 -3.70679,-2.21484 -5.49097,-0.969z" fill="#333333"></path><path d="M61.86182,162.22192l-5.07569,6.0293c-1.09204,1.0459 -1.47656,2.63013 -0.99975,4.06055c0.46142,1.43042 1.72266,2.46094 3.2146,2.66089c1.49194,0.19995 2.9685,-0.46142 3.79907,-1.72266l5.07568,-6.0293c1.41504,-1.66113 1.19971,-4.13745 -0.46142,-5.55249c-1.66113,-1.39966 -4.15283,-1.18433 -5.55249,0.47681z" fill="#333333"></path><path d="M84.73315,172.77319c-1.96875,-0.92285 -4.30664,-0.0769 -5.22949,1.89185l-3.35303,7.13672c-0.63061,1.27661 -0.52295,2.78393 0.29224,3.96826c0.7998,1.16895 2.18408,1.81494 3.59912,1.69189c1.41504,-0.13843 2.66089,-1.01513 3.22998,-2.32251l3.35303,-7.12133c0.92285,-1.96875 0.0769,-4.32202 -1.89185,-5.24488z" fill="#333333"></path><path d="M104.29761,179.00244c-2.13794,-0.38452 -4.18359,1.0459 -4.56811,3.18383l-1.3689,7.875c-0.38452,2.13794 1.0459,4.18359 3.18384,4.56812h0.70752c1.93799,0.03076 3.6145,-1.35352 3.9375,-3.26074l1.38428,-7.875c0.323,-2.15332 -1.13819,-4.15283 -3.27613,-4.49121z" fill="#333333"></path><path d="M35.4375,118.125c0,-39.09814 40.55933,-70.875 90.5625,-70.875c15.68848,-0.0769 31.20776,3.2146 45.51196,9.6438c1.98413,0.90747 4.32202,0.03076 5.22949,-1.95337c0.89209,-1.96875 0.03076,-4.30664 -1.95337,-5.21411c-15.33472,-6.89062 -31.97681,-10.42822 -48.78809,-10.35132c-54.18677,0 -98.4375,35.4375 -98.4375,78.75c0,5.3064 0.66138,10.59741 1.96875,15.75c0.44604,1.79956 2.0918,3.04541 3.9375,2.99927c0.323,0.03076 0.66138,0.03076 0.98438,0c2.10718,-0.52295 3.39917,-2.66089 2.87622,-4.76807c-1.21509,-4.56811 -1.8457,-9.25928 -1.89185,-13.9812z" fill="#333333"></path><path d="M214.4707,83.82569c-0.58447,-1.41504 -1.93799,-2.36865 -3.47607,-2.43018c-1.53809,-0.06152 -2.96851,0.76904 -3.66065,2.13794c-0.70752,1.3689 -0.53833,3.03003 0.41528,4.22974c5.69092,9.10547 8.75171,19.62598 8.81323,30.36181c0,32.25366 -27.79321,60.47754 -67.61426,68.59863c-2.1687,0.21533 -3.75293,2.15332 -3.5376,4.32202c0.21533,2.18408 2.15332,3.76831 4.3374,3.55298h0.78442c43.34326,-9.02857 73.90503,-40.40552 73.90503,-76.47363c-0.09228,-12.1355 -3.5376,-24.00952 -9.9668,-34.29931z" fill="#333333"></path><path d="M197.2749,74.58179c1.5227,1.53809 4.0144,1.55347 5.56787,0.01538c1.53809,-1.53809 1.55347,-4.02979 0.01538,-5.56787c-3.32227,-3.33765 -6.906,-6.41382 -10.70508,-9.18237c-1.7688,-1.27661 -4.22973,-0.89209 -5.52173,0.87671c-1.27661,1.75342 -0.89209,4.22974 0.87671,5.50635c3.46069,2.52246 6.73681,5.3064 9.76685,8.3518z" fill="#333333"></path><path d="M168.17432,111.38819l-23.625,-23.625c-1.56885,-1.33814 -3.89136,-1.24585 -5.35254,0.21533c-1.4458,1.4458 -1.53809,3.78369 -0.19995,5.33716l16.88819,16.93433h-73.19751c-2.1687,0 -3.9375,1.7688 -3.9375,3.9375c0,2.1687 1.7688,3.9375 3.9375,3.9375h73.19751l-16.88819,16.88819c-1.1228,0.96899 -1.61499,2.47632 -1.27661,3.92212c0.35376,1.43042 1.47656,2.55322 2.90698,2.90699c1.4458,0.33838 2.95313,-0.15381 3.92212,-1.27661l23.625,-23.625c1.5227,-1.53809 1.5227,-4.0144 0,-5.55249z" fill="#ffffff"></path></g></g></g></svg>