<svg xmlns="http://www.w3.org/2000/svg" x="0px" y="0px"
     width="38" height="38"
     viewBox="0 0 252 252"
     style=";fill:#16a085;"
     class="icon icons8-toggle-off"><g fill="none" fill-rule="nonzero" stroke="none" stroke-width="1" stroke-linecap="butt" stroke-linejoin="miter" stroke-miterlimit="10" stroke-dasharray="" stroke-dashoffset="0" font-family="none" font-weight="none" font-size="none" text-anchor="none" style="mix-blend-mode: normal"><path d="M0,252v-252h252v252z" fill="none"></path><g><g id="surface1"><path d="M69.3,192.15c-36.47109,0 -66.15,-29.6789 -66.15,-66.15c0,-36.47109 29.67891,-66.15 66.15,-66.15h113.4c36.4711,0 66.15,29.67891 66.15,66.15c0,36.4711 -29.6789,66.15 -66.15,66.15z" fill="#ef5350"></path><path d="M182.7,63c34.74844,0 63,28.25156 63,63c0,34.74844 -28.25156,63 -63,63h-113.4c-34.74844,0 -63,-28.25156 -63,-63c0,-34.74844 28.25156,-63 63,-63h113.4M182.7,56.7h-113.4c-38.26758,0 -69.3,31.03242 -69.3,69.3c0,38.26758 31.03242,69.3 69.3,69.3h113.4c38.26758,0 69.3,-31.03242 69.3,-69.3c0,-38.26758 -31.03242,-69.3 -69.3,-69.3z" fill="#ef5350"></path><path d="M116.55,126c0,26.08594 -21.16406,47.25 -47.25,47.25c-26.08594,0 -47.25,-21.16406 -47.25,-47.25c0,-26.08594 21.16406,-47.25 47.25,-47.25c26.08594,0 47.25,21.16406 47.25,47.25z" fill="#fff"></path><path d="M69.3,81.9c24.31406,0 44.1,19.78594 44.1,44.1c0,24.31406 -19.78594,44.1 -44.1,44.1c-24.31406,0 -44.1,-19.78594 -44.1,-44.1c0,-24.31406 19.78594,-44.1 44.1,-44.1M69.3,75.6c-27.8332,0 -50.4,22.5668 -50.4,50.4c0,27.8332 22.5668,50.4 50.4,50.4c27.8332,0 50.4,-22.5668 50.4,-50.4c0,-27.8332 -22.5668,-50.4 -50.4,-50.4z" fill="#ef5350"></path></g></g></g></svg>