<svg xmlns="http://www.w3.org/2000/svg" x="0px" y="0px"
     width="20" height="20"
     viewBox="0 0 252 252"
     style="fill:#3498db;"><g fill="none" fill-rule="nonzero" stroke="none" stroke-width="1" stroke-linecap="butt" stroke-linejoin="miter" stroke-miterlimit="10" stroke-dasharray="" stroke-dashoffset="0" font-family="none" font-weight="none" font-size="none" text-anchor="none" style="mix-blend-mode: normal"><path d="M0,252v-252h252v252z" fill="none"></path><g id="Layer_1"><g><rect x="2.5" y="2.5" transform="scale(6.3,6.3)" width="35" height="35" fill="#ffffff"></rect><g fill="#3498db"><path d="M233.1,18.9v214.2h-214.2v-214.2h214.2M239.4,12.6h-226.8v226.8h226.8v-226.8z"></path></g></g><g><rect x="2.5" y="2.5" transform="scale(6.3,6.3)" width="35" height="5" fill="#3498db"></rect><g fill="#2980b9"><path d="M233.1,18.9v25.2h-214.2v-25.2h214.2M239.4,12.6h-226.8v37.8h226.8v-37.8z"></path></g></g><rect x="3" y="34" transform="scale(6.3,6.3)" width="34" height="3" fill="#e1ebf2"></rect><g fill="#3498db"><path d="M207.9,132.3l-37.8,-37.8v31.5h-88.2v-31.5l-37.8,37.8l37.8,37.8v-31.5h88.2v31.5z"></path></g></g></g></svg>