<svg xmlns="http://www.w3.org/2000/svg" x="0px" y="0px"
     width="50" height="50"
     viewBox="0 0 252 252"
     style=";fill:#16a085;"
     class="icon icons8-menu"><g fill="none" fill-rule="nonzero" stroke="none" stroke-width="1" stroke-linecap="butt" stroke-linejoin="miter" stroke-miterlimit="10" stroke-dasharray="" stroke-dashoffset="0" font-family="none" font-weight="none" font-size="none" text-anchor="none" style="mix-blend-mode: normal"><path d="M0,252v-252h252v252z" fill="none"></path><g><g id="surface1"><path d="M27.5625,27.5625h196.875c4.35278,0 7.875,3.52222 7.875,7.875v181.125c0,4.35278 -3.52222,7.875 -7.875,7.875h-196.875c-4.35278,0 -7.875,-3.52222 -7.875,-7.875v-181.125c0,-4.35278 3.52222,-7.875 7.875,-7.875z" fill="#faefde"></path><path d="M35.4375,204.75h181.125c8.70557,0 15.75,7.04444 15.75,15.75c0,2.1687 -1.7688,3.9375 -3.9375,3.9375h-204.75c-2.1687,0 -3.9375,-1.7688 -3.9375,-3.9375c0,-8.70556 7.04444,-15.75 15.75,-15.75z" fill="#ecf0f1"></path><path d="M224.4375,23.625h-196.875c-6.52148,0 -11.8125,5.29102 -11.8125,11.8125v181.125c0,6.52148 5.29102,11.8125 11.8125,11.8125h196.875c6.52148,0 11.8125,-5.29102 11.8125,-11.8125v-181.125c0,-6.52148 -5.29102,-11.8125 -11.8125,-11.8125zM228.375,216.5625c0,2.1687 -1.7688,3.9375 -3.9375,3.9375h-196.875c-2.1687,0 -3.9375,-1.7688 -3.9375,-3.9375v-181.125c0,-2.1687 1.7688,-3.9375 3.9375,-3.9375h196.875c2.1687,0 3.9375,1.7688 3.9375,3.9375z" fill="#16a085"></path><path d="M55.125,196.875c-2.1687,0 -3.9375,1.7688 -3.9375,3.9375v7.875c0,2.1687 1.7688,3.9375 3.9375,3.9375c2.1687,0 3.9375,-1.7688 3.9375,-3.9375v-7.875c0,-2.1687 -1.7688,-3.9375 -3.9375,-3.9375z" fill="#16a085"></path><path d="M35.4375,196.875c-2.1687,0 -3.9375,1.7688 -3.9375,3.9375v7.875c0,2.1687 1.7688,3.9375 3.9375,3.9375c2.1687,0 3.9375,-1.7688 3.9375,-3.9375v-7.875c0,-2.1687 -1.7688,-3.9375 -3.9375,-3.9375z" fill="#16a085"></path><path d="M114.1875,196.875c-2.1687,0 -3.9375,1.7688 -3.9375,3.9375v7.875c0,2.1687 1.7688,3.9375 3.9375,3.9375c2.1687,0 3.9375,-1.7688 3.9375,-3.9375v-7.875c0,-2.1687 -1.7688,-3.9375 -3.9375,-3.9375z" fill="#16a085"></path><path d="M133.875,196.875c-2.1687,0 -3.9375,1.7688 -3.9375,3.9375v7.875c0,2.1687 1.7688,3.9375 3.9375,3.9375c2.1687,0 3.9375,-1.7688 3.9375,-3.9375v-7.875c0,-2.1687 -1.7688,-3.9375 -3.9375,-3.9375z" fill="#16a085"></path><path d="M153.5625,196.875c-2.1687,0 -3.9375,1.7688 -3.9375,3.9375v7.875c0,2.1687 1.7688,3.9375 3.9375,3.9375c2.1687,0 3.9375,-1.7688 3.9375,-3.9375v-7.875c0,-2.1687 -1.7688,-3.9375 -3.9375,-3.9375z" fill="#16a085"></path><path d="M173.25,196.875c-2.1687,0 -3.9375,1.7688 -3.9375,3.9375v7.875c0,2.1687 1.7688,3.9375 3.9375,3.9375c2.1687,0 3.9375,-1.7688 3.9375,-3.9375v-7.875c0,-2.1687 -1.7688,-3.9375 -3.9375,-3.9375z" fill="#16a085"></path><path d="M192.9375,196.875c-2.1687,0 -3.9375,1.7688 -3.9375,3.9375v7.875c0,2.1687 1.7688,3.9375 3.9375,3.9375c2.1687,0 3.9375,-1.7688 3.9375,-3.9375v-7.875c0,-2.1687 -1.7688,-3.9375 -3.9375,-3.9375z" fill="#16a085"></path><path d="M212.625,196.875c-2.1687,0 -3.9375,1.7688 -3.9375,3.9375v7.875c0,2.1687 1.7688,3.9375 3.9375,3.9375c2.1687,0 3.9375,-1.7688 3.9375,-3.9375v-7.875c0,-2.1687 -1.7688,-3.9375 -3.9375,-3.9375z" fill="#16a085"></path><path d="M74.8125,196.875c-2.1687,0 -3.9375,1.7688 -3.9375,3.9375v7.875c0,2.1687 1.7688,3.9375 3.9375,3.9375c2.1687,0 3.9375,-1.7688 3.9375,-3.9375v-7.875c0,-2.1687 -1.7688,-3.9375 -3.9375,-3.9375z" fill="#16a085"></path><path d="M94.5,196.875c-2.1687,0 -3.9375,1.7688 -3.9375,3.9375v7.875c0,2.1687 1.7688,3.9375 3.9375,3.9375c2.1687,0 3.9375,-1.7688 3.9375,-3.9375v-7.875c0,-2.1687 -1.7688,-3.9375 -3.9375,-3.9375z" fill="#16a085"></path><path d="M192.9375,86.625h-133.875c-2.1687,0 -3.9375,1.7688 -3.9375,3.9375c0,2.1687 1.7688,3.9375 3.9375,3.9375h133.875c2.1687,0 3.9375,-1.7688 3.9375,-3.9375c0,-2.1687 -1.7688,-3.9375 -3.9375,-3.9375z" fill="#1abc9c"></path><path d="M192.9375,118.125h-133.875c-2.1687,0 -3.9375,1.7688 -3.9375,3.9375c0,2.1687 1.7688,3.9375 3.9375,3.9375h133.875c2.1687,0 3.9375,-1.7688 3.9375,-3.9375c0,-2.1687 -1.7688,-3.9375 -3.9375,-3.9375z" fill="#1abc9c"></path><path d="M192.9375,149.625h-133.875c-2.1687,0 -3.9375,1.7688 -3.9375,3.9375c0,2.1687 1.7688,3.9375 3.9375,3.9375h133.875c2.1687,0 3.9375,-1.7688 3.9375,-3.9375c0,-2.1687 -1.7688,-3.9375 -3.9375,-3.9375z" fill="#1abc9c"></path></g></g></g></svg>