<?xml version="1.0" standalone="no"?>
<!DOCTYPE svg PUBLIC "-//W3C//DTD SVG 20010904//EN"
 "http://www.w3.org/TR/2001/REC-SVG-20010904/DTD/svg10.dtd">
<svg version="1.0" xmlns="http://www.w3.org/2000/svg"
 width="80px" height="80px" viewBox="0 0 980.000000 980.000000"
 preserveAspectRatio="xMidYMid meet">
<metadata>
Created by potrace 1.15, written by Peter Selinger 2001-2017
</metadata>
<g transform="translate(0.000000,980.000000) scale(0.100000,-0.100000)"
fill="#fff" stroke="none">
<path d="M4469 9784 c-898 -81 -1769 -417 -2493 -961 -358 -269 -730 -640
-998 -998 -550 -732 -883 -1599 -963 -2511 -19 -217 -19 -611 0 -828 89 -1007
471 -1926 1133 -2726 123 -148 464 -490 612 -612 329 -271 633 -469 995 -648
576 -283 1141 -437 1800 -491 182 -15 684 -6 869 15 872 100 1697 427 2396
950 357 267 733 643 1003 1002 761 1013 1098 2278 941 3534 -103 825 -434
1639 -940 2313 -204 270 -542 628 -784 829 -796 659 -1724 1046 -2720 1133
-213 18 -645 18 -851 -1z m931 -418 c1334 -159 2503 -871 3235 -1971 409 -615
643 -1256 732 -2003 22 -187 25 -753 5 -937 -107 -969 -490 -1819 -1144 -2543
-107 -119 -357 -357 -365 -348 -2 2 -8 67 -13 146 -12 170 -32 304 -70 465
-233 983 -1032 1833 -2027 2156 l-102 33 52 21 c625 255 1064 870 1137 1594
79 786 -329 1545 -1031 1920 -482 257 -1074 296 -1589 104 -617 -230 -1082
-763 -1224 -1404 -133 -602 26 -1215 444 -1712 159 -189 399 -376 610 -477
l95 -45 -170 -56 c-667 -222 -1232 -666 -1598 -1255 -254 -409 -393 -839 -430
-1338 l-12 -160 -116 107 c-659 601 -1145 1468 -1324 2361 -67 335 -90 604
-82 981 6 278 19 419 58 650 259 1533 1304 2830 2751 3414 416 168 895 278
1363 315 126 9 686 -3 815 -18z"/>
</g>
</svg>
