<svg xmlns="http://www.w3.org/2000/svg" x="0px" y="0px"
     width="20" height="20"
     viewBox="0 0 252 252"
     style="fill:#3498db;"><g fill="none" fill-rule="nonzero" stroke="none" stroke-width="1" stroke-linecap="butt" stroke-linejoin="miter" stroke-miterlimit="10" stroke-dasharray="" stroke-dashoffset="0" font-family="none" font-weight="none" font-size="none" text-anchor="none" style="mix-blend-mode: normal"><path d="M0,252v-252h252v252z" fill="none" stroke="none"></path><g id="Layer_1"><path d="M107.1,63h-18.9v-15.75c0,-1.7388 1.4112,-3.15 3.15,-3.15h12.6c1.7388,0 3.15,1.4112 3.15,3.15z" fill="#2980b9" stroke="none"></path><path d="M214.2,63h-18.9v-15.75c0,-1.7388 1.4112,-3.15 3.15,-3.15h12.6c1.7388,0 3.15,1.4112 3.15,3.15z" fill="#2980b9" stroke="none"></path><g fill="#2980b9" stroke="none"><g><path d="M168.0021,44.1c1.1529,0 2.0979,0.945 2.0979,2.0979v35.7021h-37.8v-35.7021c0,-1.1529 0.945,-2.0979 2.0979,-2.0979h33.6042M168.0021,37.8h-33.5979c-4.6431,0 -8.4042,3.7611 -8.4042,8.3979v42.0021h50.4v-42.0021c0,-4.6368 -3.7611,-8.3979 -8.3979,-8.3979z"></path></g></g><g stroke="none"><path d="M75.6,179.55c-5.2101,0 -9.45,-4.2399 -9.45,-9.45v-107.1c0,-5.2101 4.2399,-9.45 9.45,-9.45h151.2c5.2101,0 9.45,4.2399 9.45,9.45v107.1c0,5.2101 -4.2399,9.45 -9.45,9.45z" fill="#3498db"></path><path d="M226.8,56.7c3.4713,0 6.3,2.8287 6.3,6.3v107.1c0,3.4713 -2.8287,6.3 -6.3,6.3h-151.2c-3.4713,0 -6.3,-2.8287 -6.3,-6.3v-107.1c0,-3.4713 2.8287,-6.3 6.3,-6.3h151.2M226.8,50.4h-151.2c-6.9615,0 -12.6,5.6385 -12.6,12.6v107.1c0,6.9615 5.6385,12.6 12.6,12.6h151.2c6.9615,0 12.6,-5.6385 12.6,-12.6v-107.1c0,-6.9615 -5.6385,-12.6 -12.6,-12.6z" fill="#2980b9"></path></g><path d="M204.75,53.55v126" fill="none" stroke="#2980b9"></path><path d="M97.65,53.55v126" fill="none" stroke="#2980b9"></path><path d="M252,185.85h-192.15c-10.4391,0 -18.9,-8.4609 -18.9,-18.9v-107.1c0,-10.4391 -8.4609,-18.9 -18.9,-18.9h-9.45" fill="none" stroke="#2980b9"></path><g stroke="none"><circle cx="13.5" cy="31.5" transform="scale(6.3,6.3)" r="2" fill="#b0c1d4"></circle><path d="M85.05,189c5.2101,0 9.45,4.2399 9.45,9.45c0,5.2101 -4.2399,9.45 -9.45,9.45c-5.2101,0 -9.45,-4.2399 -9.45,-9.45c0,-5.2101 4.2399,-9.45 9.45,-9.45M85.05,182.7c-8.7003,0 -15.75,7.0497 -15.75,15.75c0,8.7003 7.0497,15.75 15.75,15.75c8.7003,0 15.75,-7.0497 15.75,-15.75c0,-8.7003 -7.0497,-15.75 -15.75,-15.75z" fill="#2980b9"></path></g><g stroke="none"><circle cx="35.5" cy="31.5" transform="scale(6.3,6.3)" r="2" fill="#b0c1d4"></circle><path d="M223.65,189c5.2101,0 9.45,4.2399 9.45,9.45c0,5.2101 -4.2399,9.45 -9.45,9.45c-5.2101,0 -9.45,-4.2399 -9.45,-9.45c0,-5.2101 4.2399,-9.45 9.45,-9.45M223.65,182.7c-8.7003,0 -15.75,7.0497 -15.75,15.75c0,8.7003 7.0497,15.75 15.75,15.75c8.7003,0 15.75,-7.0497 15.75,-15.75c0,-8.7003 -7.0497,-15.75 -15.75,-15.75z" fill="#2980b9"></path></g><g stroke="none"><circle cx="2" cy="8" transform="scale(6.3,6.3)" r="1.5" fill="#b0c1d4"></circle><path d="M12.6,44.1c3.4713,0 6.3,2.8287 6.3,6.3c0,3.4713 -2.8287,6.3 -6.3,6.3c-3.4713,0 -6.3,-2.8287 -6.3,-6.3c0,-3.4713 2.8287,-6.3 6.3,-6.3M12.6,37.8c-6.9615,0 -12.6,5.6385 -12.6,12.6c0,6.9615 5.6385,12.6 12.6,12.6c6.9615,0 12.6,-5.6385 12.6,-12.6c0,-6.9615 -5.6385,-12.6 -12.6,-12.6z" fill="#2980b9"></path></g></g></g></svg>