<svg xmlns="http://www.w3.org/2000/svg" x="0px" y="0px"
     width="40" height="40"
     viewBox="0 0 252 252"
     style=";fill:#000000;"
     class="icon icons8-menu"><g fill="none" fill-rule="nonzero" stroke="none" stroke-width="1" stroke-linecap="butt" stroke-linejoin="miter" stroke-miterlimit="10" stroke-dasharray="" stroke-dashoffset="0" font-family="none" font-weight="none" font-size="none" text-anchor="none" style="mix-blend-mode: normal"><path d="M0,252v-252h252v252z" fill="none"></path><g id="Слой_1" fill="#000000"><path d="M126,228.375c-56.45194,0 -102.375,-45.92306 -102.375,-102.375c0,-56.45194 45.92306,-102.375 102.375,-102.375c56.45194,0 102.375,45.92306 102.375,102.375c0,56.45194 -45.92306,102.375 -102.375,102.375zM126,31.5c-52.10494,0 -94.5,42.39506 -94.5,94.5c0,52.10494 42.39506,94.5 94.5,94.5c52.10494,0 94.5,-42.39506 94.5,-94.5c0,-52.10494 -42.39506,-94.5 -94.5,-94.5z"></path><path d="M126,204.75c-43.42275,0 -78.75,-35.32725 -78.75,-78.75c0,-43.42275 35.32725,-78.75 78.75,-78.75c43.42275,0 78.75,35.32725 78.75,78.75c0,43.42275 -35.32725,78.75 -78.75,78.75zM126,55.125c-39.07969,0 -70.875,31.79531 -70.875,70.875c0,39.07969 31.79531,70.875 70.875,70.875c39.07969,0 70.875,-31.79531 70.875,-70.875c0,-39.07969 -31.79531,-70.875 -70.875,-70.875z"></path><path d="M165.375,98.4375c0,2.1735 -1.764,3.9375 -3.9375,3.9375h-70.875c-2.1735,0 -3.9375,-1.764 -3.9375,-3.9375v-7.875c0,-2.1735 1.764,-3.9375 3.9375,-3.9375h70.875c2.1735,0 3.9375,1.764 3.9375,3.9375z"></path><path d="M165.375,129.9375c0,2.1735 -1.764,3.9375 -3.9375,3.9375h-70.875c-2.1735,0 -3.9375,-1.764 -3.9375,-3.9375v-7.875c0,-2.1735 1.764,-3.9375 3.9375,-3.9375h70.875c2.1735,0 3.9375,1.764 3.9375,3.9375z"></path><path d="M165.375,161.4375c0,2.1735 -1.764,3.9375 -3.9375,3.9375h-70.875c-2.1735,0 -3.9375,-1.764 -3.9375,-3.9375v-7.875c0,-2.1735 1.764,-3.9375 3.9375,-3.9375h70.875c2.1735,0 3.9375,1.764 3.9375,3.9375z"></path></g></g></svg>