<svg xmlns="http://www.w3.org/2000/svg" x="0px" y="0px"
     width="20" height="20"
     viewBox="0 0 252 252"
     style="fill:#3498db;"><g fill="none" fill-rule="nonzero" stroke="none" stroke-width="1" stroke-linecap="butt" stroke-linejoin="miter" stroke-miterlimit="10" stroke-dasharray="" stroke-dashoffset="0" font-family="none" font-weight="none" font-size="none" text-anchor="none" style="mix-blend-mode: normal"><path d="M0,252v-252h252v252z" fill="none"></path><g id="Layer_1"><g><path d="M126,242.55c-64.2663,0 -116.55,-52.2837 -116.55,-116.55c0,-64.2663 52.2837,-116.55 116.55,-116.55c64.2663,0 116.55,52.2837 116.55,116.55c0,64.2663 -52.2837,116.55 -116.55,116.55z" fill="#3498db"></path><path d="M126,12.6c62.5275,0 113.4,50.8725 113.4,113.4c0,62.5275 -50.8725,113.4 -113.4,113.4c-62.5275,0 -113.4,-50.8725 -113.4,-113.4c0,-62.5275 50.8725,-113.4 113.4,-113.4M126,6.3c-66.1059,0 -119.7,53.5941 -119.7,119.7c0,66.1059 53.5941,119.7 119.7,119.7c66.1059,0 119.7,-53.5941 119.7,-119.7c0,-66.1059 -53.5941,-119.7 -119.7,-119.7z" fill="#2980b9"></path></g><g fill="#3498db"><path d="M162.2439,176.4h-72.4878v-13.6899c10.6848,-3.213 16.0209,-10.5021 16.0209,-21.8547v-13.0662h-14.3892v-13.608h14.3892v-19.0575c0,-9.387 2.9925,-17.0856 8.9838,-23.1021c5.9913,-6.0165 13.7529,-9.0216 23.2974,-9.0216c6.4323,0 12.2913,1.0647 17.577,3.1878v15.6303c-4.9203,-2.9547 -10.1367,-4.4352 -15.6303,-4.4352c-11.3022,0 -16.9533,6.9237 -16.9533,20.7648v16.0209h22.0878v13.608h-22.0878v10.7352c0,11.151 -5.0022,18.9504 -15.0129,23.4108h54.2115v14.4774z"></path></g></g><g fill="#ffffff"><path d="M98.87,81.76v9.26h-27.42v76.05h-11.2v-76.05h-27.36v-9.26zM153.71,167.07h-11.37v0c-0.62,-1.24667 -1.12667,-3.47333 -1.52,-6.68v0v0c-5.04,5.23333 -11.05667,7.85 -18.05,7.85v0v0c-6.24667,0 -11.37333,-1.76667 -15.38,-5.3v0v0c-4,-3.53333 -6,-8.01667 -6,-13.45v0v0c0,-6.6 2.51,-11.72667 7.53,-15.38v0v0c5.02,-3.65333 12.08,-5.48 21.18,-5.48v0h10.55v-4.98v0c0,-3.78667 -1.13333,-6.80333 -3.4,-9.05v0v0c-2.26667,-2.24667 -5.60667,-3.37 -10.02,-3.37v0v0c-3.86667,0 -7.11,0.97667 -9.73,2.93v0v0c-2.62,1.95333 -3.93,4.31667 -3.93,7.09v0h-10.89v0c0,-3.16667 1.12333,-6.22333 3.37,-9.17v0v0c2.24,-2.94667 5.28667,-5.28 9.14,-7v0v0c3.84667,-1.72 8.07333,-2.58 12.68,-2.58v0v0c7.30667,0 13.03,1.82667 17.17,5.48v0v0c4.14,3.65333 6.28667,8.68333 6.44,15.09v0v29.18v0c0,5.82 0.74333,10.44667 2.23,13.88v0zM124.36,158.81v0v0c3.39333,0 6.61333,-0.88 9.66,-2.64v0v0c3.04667,-1.76 5.25667,-4.04333 6.63,-6.85v0v-13.01h-8.5v0c-13.28,0 -19.92,3.88667 -19.92,11.66v0v0c0,3.4 1.13333,6.05667 3.4,7.97v0v0c2.26,1.91333 5.17,2.87 8.73,2.87zM175.86,103.67l13.89,23.15l14.06,-23.15h12.66l-20.75,31.35l21.39,32.05h-12.54l-14.65,-23.73l-14.65,23.73h-12.59l21.38,-32.05l-20.74,-31.35z"></path></g></g></svg>