<svg xmlns="http://www.w3.org/2000/svg" x="0px" y="0px"
     width="30" height="30"
     viewBox="0 0 252 252"
     style="fill:#3498db;"><g fill="none" fill-rule="nonzero" stroke="none" stroke-width="1" stroke-linecap="butt" stroke-linejoin="miter" stroke-miterlimit="10" stroke-dasharray="" stroke-dashoffset="0" font-family="none" font-weight="none" font-size="none" text-anchor="none" style="mix-blend-mode: normal"><path d="M0,252v-252h252v252z" fill="none"></path><g id="Layer_1"><g fill="#2980b9"><path d="M112.2156,106.4028c0,-4.6788 4.62,-8.7192 14.1372,-8.7192c10.7688,0 18.522,2.7636 24.5448,6.0816v-15.792c-4.4772,-2.2596 -11.2476,-3.5868 -20.3112,-3.9816l-9.4164,0.2352c-7.8708,0.6972 -14.1792,3.2088 -18.9504,7.518c-4.7712,4.3092 -7.1568,9.5172 -7.1568,15.6492c0,24.192 44.7468,24.9396 44.7468,38.1948c0,4.7208 -6.5184,8.3664 -13.7844,8.3664c-14.8764,0 -26.7288,-5.712 -29.2236,-7.5432v16.2036c7.518,3.5448 15.6408,5.3424 24.3684,5.3844l9.4164,-0.3528c8.4672,-0.8568 14.9772,-3.2592 19.5384,-7.2156c4.5444,-3.9564 6.8292,-9.1812 6.8292,-15.6492c-0.0084,-25.8384 -44.7384,-23.8644 -44.7384,-38.3796z"></path></g><g fill="#2980b9"><rect x="14.263" y="8.368" transform="scale(8.4,8.4)" width="1.474" height="2.211"></rect></g><g fill="#2980b9"><rect x="14.263" y="19.368" transform="scale(8.4,8.4)" width="1.474" height="2.211"></rect></g><g><path d="M126,239.4c-2.7132,0 -5.502,-0.1176 -8.4504,-0.3528l1.8228,-16.2624c2.2932,0.168 4.4856,0.252 6.6276,0.252c53.508,0 97.0452,-43.5372 97.0452,-97.0452c0,-53.508 -43.5372,-97.0368 -97.0452,-97.0368c-19.3704,0 -38.1528,5.8212 -54.3312,16.842l-5.0484,3.3516l13.6752,19.3788l-57.33,2.5872l20.2776,-54.0708l14.1372,18.816l3.3264,-2.3688c19.2696,-13.6668 41.8488,-20.8908 65.2932,-20.8908c62.5296,0 113.4,50.8704 113.4,113.4c0,62.5296 -50.8704,113.4 -113.4,113.4z" fill="#3498db"></path><g fill="#2980b9"><path d="M126,16.8c60.2112,0 109.2,48.9888 109.2,109.2c0,60.2112 -48.9888,109.2 -109.2,109.2c-1.2432,0 -2.5032,-0.0252 -3.7884,-0.0756l0.8904,-7.9296c0.9744,0.0336 1.9404,0.0504 2.898,0.0504c55.8264,0 101.2452,-45.4188 101.2452,-101.2452c0,-55.8264 -45.4188,-101.2452 -101.2452,-101.2452c-20.2188,0 -39.8244,6.0732 -56.616,17.514l-1.4952,0.9996l-7.1988,4.7796l4.9812,7.056l6.762,9.576l-43.302,1.9572l15.3552,-40.9416l7.0812,9.4248l4.914,6.5352l6.6696,-4.7292c18.5472,-13.1712 40.278,-20.1264 62.8488,-20.1264M126,8.4c-25.2672,0 -48.5688,8.0892 -67.7124,21.672l-16.2876,-21.672l-25.2,67.2l71.3496,-3.2172l-15.6156,-22.1172l1.4952,-0.9912c14.8344,-10.1052 32.6676,-16.1196 51.9708,-16.1196c51.2736,0 92.8452,41.5632 92.8452,92.8452c0,51.2736 -41.5632,92.8452 -92.8452,92.8452c-3.5028,0 -6.9468,-0.2352 -10.3404,-0.6132l-2.7552,24.5952c4.3008,0.4788 8.6604,0.7728 13.0956,0.7728c64.9488,0 117.6,-52.6512 117.6,-117.6c0,-64.9488 -52.6512,-117.6 -117.6,-117.6z"></path></g></g><g fill="#2980b9"><path d="M33.5076,118.8852l-24.7128,-1.8984c-0.2352,2.9736 -0.3948,5.9724 -0.3948,9.0132c0,3.1836 0.1764,6.3168 0.42,9.4332l24.78,-1.9908c-0.1932,-2.4696 -0.4452,-4.9224 -0.4452,-7.4424c0,-2.4024 0.1428,-4.7712 0.3528,-7.1148z"></path></g><g fill="#2980b9"><path d="M13.9524,161.5488c1.8816,5.9052 4.1916,11.6256 6.9468,17.0856l22.2012,-11.1216c-2.1672,-4.3092 -3.8892,-8.8536 -5.3844,-13.5072z"></path></g><g fill="#2980b9"><path d="M54.6084,185.0604l-19.1604,15.8508c3.9312,4.7376 8.232,9.156 12.852,13.2216l16.3548,-18.5556c-3.6456,-3.2088 -6.9384,-6.7788 -10.0464,-10.5168z"></path></g><g fill="#2980b9"><path d="M70.1232,229.3452c5.3844,2.9064 11.004,5.4264 16.8504,7.4844l8.2152,-23.3352c-4.6116,-1.6212 -9.0552,-3.612 -13.3056,-5.9136z"></path></g></g></g></svg>