<svg xmlns="http://www.w3.org/2000/svg" x="0px" y="0px"
     width="35" height="35"
     viewBox="0 0 252 252"
     style=";fill:#ffffff;"
     class="icon icons8-delete"><g fill="none" fill-rule="nonzero" stroke="none" stroke-width="1" stroke-linecap="butt" stroke-linejoin="miter" stroke-miterlimit="10" stroke-dasharray="" stroke-dashoffset="0" font-family="none" font-weight="none" font-size="none" text-anchor="none" style="mix-blend-mode: normal"><path d="M0,252v-252h252v252z" fill="none"></path><g><g id="surface1"><path d="M232.3125,122.0625c0,60.89282 -49.35718,110.25 -110.25,110.25c-60.89282,0 -110.25,-49.35718 -110.25,-110.25c0,-60.89282 49.35718,-110.25 110.25,-110.25c60.89282,0 110.25,49.35718 110.25,110.25z" fill="#666666"></path><path d="M122.0625,11.8125c-60.89282,0 -110.25,49.35718 -110.25,110.25c0,60.89282 49.35718,110.25 110.25,110.25c60.89282,0 110.25,-49.35718 110.25,-110.25c0,-60.89282 -49.35718,-110.25 -110.25,-110.25zM122.0625,208.6875c-47.83447,0 -86.625,-38.79053 -86.625,-86.625c0,-47.83447 38.79053,-86.625 86.625,-86.625c23.16358,0 44.20459,9.09009 59.75464,23.90186c0.90747,0.86133 1.78418,1.75342 2.66089,2.64551c1.01513,1.06128 1.99951,2.13794 2.9685,3.26074c13.22754,15.21167 21.24097,35.06836 21.24097,56.81689c0,47.83447 -38.79053,86.625 -86.625,86.625z" fill="#cccccc"></path><path d="M122.0625,208.6875c-47.83447,0 -86.625,-38.79053 -86.625,-86.625h-6.53686c-9.81299,0 -17.18042,8.85938 -15.53467,18.53393c8.81324,52.06421 54.12525,91.71607 108.69653,91.71607c54.57129,0 99.8833,-39.65185 108.69653,-91.71607c1.64575,-9.67456 -5.72168,-18.53393 -15.53467,-18.53393h-6.53686c0,47.83447 -38.79053,86.625 -86.625,86.625z" fill="#cccccc"></path><path d="M122.0625,7.875c-62.95386,0 -114.1875,51.21826 -114.1875,114.1875c0,62.96924 51.23364,114.1875 114.1875,114.1875c62.95386,0 114.1875,-51.21826 114.1875,-114.1875c0,-62.96924 -51.23364,-114.1875 -114.1875,-114.1875zM122.0625,228.375c-58.61646,0 -106.3125,-47.69604 -106.3125,-106.3125c0,-58.61646 47.69604,-106.3125 106.3125,-106.3125c58.61646,0 106.3125,47.69604 106.3125,106.3125c0,58.61646 -47.69604,106.3125 -106.3125,106.3125z" fill="#ffffff"></path><path d="M122.0625,196.875c-2.18408,0 -3.9375,1.7688 -3.9375,3.9375v7.875c0,2.1687 1.75342,3.9375 3.9375,3.9375c2.18408,0 3.9375,-1.7688 3.9375,-3.9375v-7.875c0,-2.1687 -1.75342,-3.9375 -3.9375,-3.9375z" fill="#ffffff"></path><path d="M145.73364,197.18262c-0.55371,-2.10718 -2.72241,-3.35303 -4.81421,-2.78393c-2.10718,0.55371 -3.35303,2.72241 -2.78394,4.81421l2.03027,7.61353c0.47681,1.75342 2.06104,2.92236 3.79907,2.92236c0.33838,0 0.69214,-0.04614 1.03052,-0.13843c2.0918,-0.56909 3.35303,-2.72241 2.78393,-4.82959z" fill="#ffffff"></path><path d="M85.64063,187.10815c-1.87646,-1.07666 -4.29126,-0.43066 -5.3833,1.4458l-3.9375,6.81372c-1.07666,1.89184 -0.43066,4.30664 1.4458,5.3833c0.61523,0.35376 1.29199,0.52295 1.96875,0.52295c1.35352,0 2.67627,-0.69214 3.41455,-1.96875l3.9375,-6.81372c1.09204,-1.87647 0.44604,-4.29126 -1.4458,-5.3833z" fill="#ffffff"></path><path d="M163.86768,188.55396c-1.09204,-1.87647 -3.50684,-2.52246 -5.3833,-1.43042c-1.89185,1.07666 -2.53784,3.49145 -1.4458,5.36792l3.9375,6.8291c0.73828,1.26123 2.06103,1.96875 3.41455,1.96875c0.67676,0 1.35352,-0.16919 1.96875,-0.53833c1.89185,-1.07666 2.53784,-3.49146 1.4458,-5.36792z" fill="#ffffff"></path><path d="M103.20557,194.39868c-2.0918,-0.56909 -4.2605,0.67676 -4.81421,2.78393l-2.04565,7.59815c-0.56909,2.10718 0.69214,4.2605 2.78393,4.82959c0.33838,0.09229 0.69214,0.13843 1.03052,0.13843c1.73804,0 3.32227,-1.16895 3.79907,-2.92236l2.03027,-7.61353c0.56909,-2.0918 -0.67676,-4.2605 -2.78393,-4.81421z" fill="#ffffff"></path><path d="M158.25366,152.68579l-30.62329,-30.62329l30.62329,-30.62329c1.53809,-1.53809 1.53809,-4.02978 0,-5.56787c-1.53809,-1.53809 -4.02978,-1.53809 -5.56787,0l-30.62329,30.62329l-30.62329,-30.62329c-1.53809,-1.53809 -4.02978,-1.53809 -5.56787,0c-1.53809,1.53809 -1.53809,4.02978 0,5.56787l30.62329,30.62329l-30.62329,30.62329c-1.53809,1.53809 -1.53809,4.02978 0,5.56787c0.76904,0.76904 1.7688,1.15357 2.78393,1.15357c0.99975,0 2.01489,-0.38452 2.78393,-1.15357l30.62329,-30.62329l30.62329,30.62329c0.76904,0.76904 1.78418,1.15357 2.78393,1.15357c1.01514,0 2.01489,-0.38452 2.78393,-1.15357c1.53809,-1.53809 1.53809,-4.02978 0,-5.56787z" fill="#faefde"></path><path d="M151.00928,44.57373c2.79931,1.06128 5.58325,2.27637 8.25952,3.62988c0.58447,0.27685 1.18433,0.41528 1.7688,0.41528c1.4458,0 2.83008,-0.78442 3.52222,-2.15332c0.98438,-1.95337 0.19995,-4.32202 -1.73804,-5.29102c-2.92237,-1.49194 -5.98316,-2.81469 -9.05933,-3.96826c-2.04565,-0.76904 -4.30664,0.27685 -5.0603,2.30713c-0.76904,2.04566 0.26147,4.30664 2.30713,5.06031z" fill="#ffffff"></path><path d="M63.58447,63.59985c18.70313,-18.70312 45.4812,-27.36255 71.62866,-23.17896c2.13794,0.33838 4.16821,-1.1228 4.50659,-3.26074c0.33838,-2.15332 -1.1228,-4.16821 -3.26074,-4.52197c-28.62378,-4.59888 -57.95508,4.90649 -78.427,25.37842c-35.31445,35.31445 -35.31445,92.77734 0,128.07642c0.76904,0.76904 1.7688,1.15357 2.78394,1.15357c0.99975,0 2.01489,-0.38452 2.78393,-1.15357c1.53809,-1.53809 1.53809,-4.02979 0,-5.56787c-32.23828,-32.23828 -32.23828,-84.68701 -0.01538,-116.92529z" fill="#ffffff"></path><path d="M186.1084,58.03198c-2.59936,-2.59936 -5.36792,-5.0603 -8.24414,-7.30591c-1.72266,-1.35352 -4.19897,-1.0459 -5.53711,0.66137c-1.33814,1.70728 -1.0459,4.18359 0.67676,5.52173c2.63013,2.06104 5.15259,4.32202 7.53662,6.69067c32.23828,32.23828 32.23828,84.68701 0,116.92529c-1.53809,1.53809 -1.53809,4.02979 0,5.56787c0.76904,0.76904 1.7688,1.15357 2.78393,1.15357c0.99975,0 2.01489,-0.38452 2.78393,-1.15357c35.29907,-35.29907 35.29907,-92.76196 0,-128.06104z" fill="#ffffff"></path></g></g></g></svg>